<?xml version="1.0" encoding="utf-8"?>
<!-- Generator: Adobe Illustrator 23.0.1, SVG Export Plug-In . SVG Version: 6.00 Build 0)  -->
<svg version="1.1" id="Layer_1" xmlns="http://www.w3.org/2000/svg" xmlns:xlink="http://www.w3.org/1999/xlink" x="0px" y="0px"
	 viewBox="0 0 20.5 20.5" style="enable-background:new 0 0 20.5 20.5;" xml:space="preserve">
<style type="text/css">
	.st0{fill:none;}
	.st1{fill:#4489FC;}
</style>
<path class="st0" d="M-1.7-1.7h24v24h-24V-1.7z"/>
<path class="st1" d="M10.3,5.3c-0.6,0-1,0.4-1,1v3h-3c-0.6,0-1,0.4-1,1s0.4,1,1,1h3v3c0,0.5,0.4,1,1,1s1-0.5,1-1v-3h3
	c0.5,0,1-0.4,1-1s-0.5-1-1-1h-3v-3C11.3,5.7,10.9,5.3,10.3,5.3z M10.3,0.3c-5.5,0-10,4.5-10,10s4.5,10,10,10s10-4.5,10-10
	S15.8,0.3,10.3,0.3z M10.3,18.3c-4.4,0-8-3.6-8-8s3.6-8,8-8s8,3.6,8,8S14.7,18.3,10.3,18.3z"/>
</svg>
