<?xml version="1.0" encoding="utf-8"?>
<!-- Generator: Adobe Illustrator 23.0.1, SVG Export Plug-In . SVG Version: 6.00 Build 0)  -->
<svg version="1.1" id="Layer_1" xmlns="http://www.w3.org/2000/svg" xmlns:xlink="http://www.w3.org/1999/xlink" x="0px" y="0px"
	 viewBox="0 0 1362 381" style="enable-background:new 0 0 1362 381;" xml:space="preserve">
<style type="text/css">
	.st0{fill:#5C68FF;}
	.st1{fill:#3C6DF0;}
	.st2{fill:#B8CEFF;}
	.st3{fill:#BCC7E3;}
	.st4{fill:#2144A2;}
	.st5{fill:#6992ED;}
	.st6{fill:none;}
	.st7{fill:#FFFFFF;}
	.st8{fill:#2979FF;}
</style>
<path class="st0" d="M81.94,42.58c-0.69-0.67-1.8-0.66-2.48,0.03l-3.67,3.76l-3.76-3.67c-0.69-0.67-1.8-0.66-2.48,0.03
	c-0.67,0.69-0.66,1.8,0.03,2.48l3.76,3.67l-3.67,3.76c-0.67,0.69-0.66,1.8,0.03,2.48c0.69,0.67,1.8,0.66,2.48-0.03l3.67-3.76
	L79.62,55c0.69,0.67,1.8,0.66,2.48-0.03s0.66-1.8-0.03-2.48l-3.76-3.67l3.67-3.76C82.65,44.37,82.63,43.25,81.94,42.58z"/>
<path class="st1" d="M356.16,287.99c-0.81-0.79-2.11-0.77-2.9,0.04l-4.29,4.4l-4.4-4.29c-0.81-0.79-2.11-0.77-2.9,0.04
	c-0.79,0.81-0.77,2.11,0.04,2.9l4.4,4.29l-4.29,4.4c-0.79,0.81-0.77,2.11,0.04,2.9c0.81,0.79,2.11,0.77,2.9-0.04l4.29-4.4l4.4,4.29
	c0.81,0.79,2.11,0.77,2.9-0.04c0.79-0.81,0.77-2.11-0.04-2.9l-4.4-4.29l4.29-4.4C356.98,290.08,356.97,288.77,356.16,287.99z"/>
<path class="st1" d="M394.98,38.87c-0.69-0.67-1.8-0.66-2.48,0.03l-3.67,3.76l-3.76-3.67c-0.69-0.67-1.8-0.66-2.48,0.03
	c-0.67,0.69-0.66,1.8,0.03,2.48l3.76,3.67l-3.67,3.76c-0.67,0.69-0.66,1.8,0.03,2.48c0.69,0.67,1.8,0.66,2.48-0.03l3.67-3.76
	l3.76,3.67c0.69,0.67,1.8,0.66,2.48-0.03c0.67-0.69,0.66-1.8-0.03-2.48l-3.76-3.67l3.67-3.76
	C395.68,40.65,395.67,39.54,394.98,38.87z"/>
<path class="st2" d="M623.5,33.46c-0.41-0.4-1.06-0.39-1.45,0.02l-2.15,2.21l-2.21-2.15c-0.41-0.4-1.06-0.39-1.45,0.02
	c-0.4,0.41-0.39,1.06,0.02,1.45l2.21,2.15l-2.15,2.21c-0.4,0.41-0.39,1.06,0.02,1.45c0.41,0.4,1.06,0.39,1.45-0.02l2.15-2.21
	l2.21,2.15c0.41,0.4,1.06,0.39,1.45-0.02c0.4-0.41,0.39-1.06-0.02-1.45l-2.21-2.15l2.15-2.21C623.91,34.51,623.9,33.86,623.5,33.46z
	"/>
<path class="st3" d="M-83.67,154.41c-0.72-0.7-1.88-0.69-2.59,0.03l-3.83,3.93l-3.93-3.83c-0.72-0.7-1.88-0.69-2.59,0.03
	c-0.7,0.72-0.69,1.88,0.03,2.59l3.93,3.83l-3.83,3.93c-0.7,0.72-0.69,1.88,0.03,2.59s1.88,0.69,2.59-0.03l3.83-3.93l3.93,3.83
	c0.72,0.7,1.88,0.69,2.59-0.03c0.7-0.72,0.69-1.88-0.03-2.59l-3.93-3.83l3.83-3.93C-82.93,156.28-82.95,155.11-83.67,154.41z"/>
<path class="st3" d="M687.06,338.95c-0.69-0.67-1.8-0.66-2.48,0.03l-3.67,3.76l-3.76-3.67c-0.69-0.67-1.8-0.66-2.48,0.03
	c-0.67,0.69-0.66,1.8,0.03,2.48l3.76,3.67l-3.67,3.76c-0.67,0.69-0.66,1.8,0.03,2.48c0.69,0.67,1.8,0.66,2.48-0.03l3.67-3.76
	l3.76,3.67c0.69,0.67,1.8,0.66,2.48-0.03c0.67-0.69,0.66-1.8-0.03-2.48l-3.76-3.67l3.67-3.76
	C687.76,340.73,687.75,339.62,687.06,338.95z"/>
<path class="st4" d="M-47.04,548.91c-0.01-0.78-0.65-1.4-1.43-1.39l-4.23,0.05l-0.05-4.23c-0.01-0.78-0.65-1.4-1.43-1.39
	c-0.78,0.01-1.4,0.65-1.39,1.43l0.05,4.23l-4.23,0.05c-0.78,0.01-1.4,0.65-1.39,1.43c0.01,0.78,0.65,1.4,1.43,1.39l4.23-0.05
	l0.05,4.23c0.01,0.78,0.65,1.4,1.43,1.39c0.78-0.01,1.4-0.65,1.39-1.43l-0.05-4.23l4.23-0.05
	C-47.66,550.32-47.03,549.68-47.04,548.91z"/>
<path class="st4" d="M437.44,488.54c-1.26,0.39-1.97,1.74-1.58,3l2.14,6.88l-6.88,2.14c-1.26,0.39-1.97,1.74-1.58,3
	c0.39,1.26,1.74,1.97,3,1.58l6.88-2.14l2.14,6.88c0.39,1.26,1.74,1.97,3,1.58c1.26-0.39,1.97-1.74,1.58-3l-2.14-6.88l6.88-2.14
	c1.26-0.39,1.97-1.74,1.58-3c-0.39-1.26-1.74-1.97-3-1.58l-6.88,2.14l-2.14-6.88C440.05,488.86,438.7,488.15,437.44,488.54z"/>
<path class="st1" d="M220.51,95.37c-0.17-0.72-0.9-1.18-1.62-1.01l-3.95,0.92l-0.92-3.95c-0.17-0.72-0.9-1.18-1.62-1.01
	c-0.72,0.17-1.18,0.9-1.01,1.62l0.92,3.95l-3.95,0.92c-0.72,0.17-1.18,0.9-1.01,1.62c0.17,0.72,0.9,1.18,1.62,1.01l3.95-0.92
	l0.92,3.95c0.17,0.72,0.9,1.18,1.62,1.01c0.72-0.17,1.18-0.9,1.01-1.62l-0.92-3.95l3.95-0.92
	C220.22,96.82,220.68,96.09,220.51,95.37z"/>
<path class="st2" d="M143.36,328.33c-0.22-0.94-1.17-1.53-2.1-1.31l-5.12,1.19l-1.19-5.12c-0.22-0.94-1.17-1.53-2.1-1.31
	c-0.94,0.22-1.53,1.17-1.31,2.1l1.19,5.12l-5.12,1.19c-0.94,0.22-1.53,1.17-1.31,2.1s1.17,1.53,2.1,1.31l5.12-1.19l1.19,5.12
	c0.22,0.94,1.17,1.53,2.1,1.31c0.94-0.22,1.53-1.17,1.31-2.1l-1.19-5.12l5.12-1.19C142.99,330.22,143.58,329.27,143.36,328.33z"/>
<path class="st2" d="M592.69-135.72c-0.3-1.29-1.6-2.09-2.88-1.79l-7.01,1.63l-1.63-7.01c-0.3-1.29-1.6-2.09-2.88-1.79
	c-1.29,0.3-2.09,1.6-1.79,2.88l1.63,7.01l-7.01,1.63c-1.29,0.3-2.09,1.6-1.79,2.88s1.6,2.09,2.88,1.79l7.01-1.63l1.63,7.01
	c0.3,1.29,1.6,2.09,2.88,1.79c1.29-0.3,2.09-1.6,1.79-2.88l-1.63-7.01l7.01-1.63C592.18-133.14,592.99-134.44,592.69-135.72z"/>
<path class="st2" d="M1051.12,122.34c-0.69-0.67-1.8-0.66-2.48,0.03l-3.67,3.76l-3.76-3.67c-0.69-0.67-1.8-0.66-2.48,0.03
	c-0.67,0.69-0.66,1.8,0.03,2.48l3.76,3.67l-3.67,3.76c-0.67,0.69-0.66,1.8,0.03,2.48c0.69,0.67,1.8,0.66,2.48-0.03l3.67-3.76
	l3.76,3.67c0.69,0.67,1.8,0.66,2.48-0.03c0.67-0.69,0.66-1.8-0.03-2.48l-3.76-3.67l3.67-3.76
	C1051.83,124.13,1051.81,123.01,1051.12,122.34z"/>
<path class="st4" d="M974.99,27.22c-0.69-0.67-1.8-0.66-2.48,0.03l-3.67,3.76l-3.76-3.67c-0.69-0.67-1.8-0.66-2.48,0.03
	c-0.67,0.69-0.66,1.8,0.03,2.48l3.76,3.67l-3.67,3.76c-0.67,0.69-0.66,1.8,0.03,2.48c0.69,0.67,1.8,0.66,2.48-0.03l3.67-3.76
	l3.76,3.67c0.69,0.67,1.8,0.66,2.48-0.03c0.67-0.69,0.66-1.8-0.03-2.48l-3.76-3.67l3.67-3.76C975.69,29.01,975.68,27.9,974.99,27.22
	z"/>
<path class="st3" d="M1042.25,279.17c-0.92,0.29-1.44,1.27-1.15,2.19l1.56,5.02l-5.02,1.56c-0.92,0.29-1.44,1.27-1.15,2.19
	c0.29,0.92,1.27,1.44,2.19,1.15l5.02-1.56l1.56,5.02c0.29,0.92,1.27,1.44,2.19,1.15c0.92-0.29,1.44-1.27,1.15-2.19l-1.56-5.02
	l5.02-1.56c0.92-0.29,1.44-1.27,1.15-2.19s-1.27-1.44-2.19-1.15l-5.02,1.56l-1.56-5.02C1044.16,279.4,1043.17,278.88,1042.25,279.17
	z"/>
<circle class="st5" cx="83.73" cy="219.63" r="11.68"/>
<rect x="72.05" y="207.95" class="st6" width="23.36" height="23.36"/>
<circle class="st7" cx="83.73" cy="219.63" r="7.79"/>
<circle class="st7" cx="83.73" cy="219.63" r="3.89"/>
<circle class="st5" cx="794.08" cy="73.2" r="9.12"/>
<rect x="357" y="-222" class="st6" width="25" height="25"/>
<circle class="st7" cx="794.08" cy="73.2" r="6.08"/>
<circle class="st7" cx="820.36" cy="87.07" r="3.04"/>
<circle class="st4" cx="845" cy="472" r="16"/>
<rect x="829" y="456" class="st6" width="32" height="32"/>
<circle class="st7" cx="845" cy="472" r="10.67"/>
<circle class="st7" cx="845" cy="472" r="5.33"/>
<g>
	<circle class="st8" cx="1223.48" cy="128.17" r="7.66"/>
	<rect x="1215.82" y="120.5" class="st6" width="15.33" height="15.33"/>
	<circle class="st7" cx="1223.48" cy="128.17" r="5.11"/>
	<circle class="st7" cx="1223.48" cy="128.17" r="2.55"/>
</g>
<circle class="st4" cx="1179.8" cy="317.52" r="6.2"/>
<rect x="1173.59" y="311.32" class="st6" width="12.41" height="12.41"/>
<circle class="st7" cx="1179.8" cy="317.52" r="4.14"/>
<circle class="st7" cx="1179.8" cy="317.52" r="2.07"/>
<g>
	<circle class="st8" cx="999.5" cy="-74.5" r="10.5"/>
	<rect x="989" y="-85" class="st6" width="21" height="21"/>
	<circle class="st7" cx="999.5" cy="-74.5" r="7"/>
	<circle class="st7" cx="999.5" cy="-74.5" r="3.5"/>
</g>
<circle class="st4" cx="1231.29" cy="44.82" r="11.68"/>
<rect x="1219.61" y="33.15" class="st6" width="23.36" height="23.36"/>
<circle class="st7" cx="1231.29" cy="44.82" r="7.79"/>
<circle class="st7" cx="1231.29" cy="44.82" r="3.89"/>
<g>
	<circle class="st8" cx="899.51" cy="321.44" r="4.01"/>
	<rect x="895.5" y="317.43" class="st6" width="8.03" height="8.03"/>
	<circle class="st7" cx="899.51" cy="321.44" r="2.68"/>
	<circle class="st7" cx="899.51" cy="321.44" r="1.34"/>
</g>
<g>
	<circle class="st8" cx="218" cy="488" r="11"/>
	<rect x="207" y="477" class="st6" width="22" height="22"/>
	<circle class="st7" cx="218" cy="488" r="7.33"/>
	<circle class="st7" cx="218" cy="488" r="3.67"/>
</g>
<g>
	<circle class="st8" cx="163" cy="-140" r="11"/>
	<rect x="152" y="-151" class="st6" width="22" height="22"/>
	<circle class="st7" cx="163" cy="-140" r="7.33"/>
	<circle class="st7" cx="163" cy="-140" r="3.67"/>
</g>
<circle class="st7" cx="94.79" cy="244.85" r="8.83"/>
<g>
	<circle class="st8" cx="538.57" cy="252.63" r="5.84"/>
	<rect x="532.73" y="246.8" class="st6" width="11.68" height="11.68"/>
	<circle class="st7" cx="538.57" cy="252.63" r="3.89"/>
	<circle class="st7" cx="538.57" cy="252.63" r="1.95"/>
</g>
</svg>
